<svg  id="logo" 
      data-name="trattore" 
      xmlns="http://www.w3.org/2000/svg" 
      viewBox="0 0 879.3 642.828"
>
  <path class="shape" fill="#bdbdbd" d="M375.4,58.2c6.8,16.1,13.3,31.7,19.8,47.3q27.9,66.15,56,132.1a5.425,5.425,0,0,0,3.8,2.8c31.7.1,63.3.1,95.6.1V135h18.5c0-9.2-.1-18,0-26.8.2-10.7-.3-21.4,1-31.9,2.4-19.9,22.5-36,42.6-34.7V55.9c-4.7,1.4-9.6,2.2-13.8,4.3-8.7,4.4-13.7,12-14,21.6-.6,17.5-.2,35-.2,53h18.5V241.7H789.5v89.2h89.7V447.5c-1.2.2-2.4.3-3.7.4-13.7,0-27.3-.1-41,.1-3.2,0-5.1-1.1-7.1-3.5-29.2-35.7-66.8-53.2-113-49.8-42.2,3.1-75.3,23-99.4,58a7.584,7.584,0,0,1-5,2.9q-102.3.3-204.5.3c-.3,0-.6-.1-.4-.1-1-13.4-1.4-26.6-3.2-39.7-4.3-31.4-16.1-59.9-34.4-85.7-22.6-31.8-52.3-54.7-88.6-68.7-53.6-20.6-106.4-18-158.3,6.5-18.9,8.9-35.5,21-50.6,35.4C55.1,317.7,43.7,334.3,33.6,352c-.9,1.5-3,3.3-4.6,3.4-9.1.3-18.3.1-29.1.1,7.1-12.3,13.4-23.9,20.3-35,15-23.9,35.9-42.2,58.4-58.6,1.9-1.4,3.4-3.3,5.5-4.2,9.8-4.2,11-11.7,11-21.6-.2-57.2.4-114.3.7-171.5V58.4a32.074,32.074,0,0,1-5.3-1.5c-4.8-2.1-7.7-5.6-7.7-11.1,0-11-.2-22,0-33,.1-7.4,4.6-12,12-12.6a41.729,41.729,0,0,1,5-.1h247c10.6,0,21.3.3,31.9.4,8.2.1,13.4,5.1,13.4,13.3V40.3C392.2,53.9,389.7,56.7,375.4,58.2ZM210.8,227.9v.2c11.3,0,22.7.1,34,0,8.8-.1,17.7-.1,26.4-.9,6.5-.6,9-4,8.7-10.4a87.945,87.945,0,0,0-1.1-11.4Q268,143.3,256.9,81.3c-2.3-13-6.8-17-19.7-17.2-28.5-.5-56.9-.5-85.4-.5-8.4,0-13.1,5.3-13.2,13.6-.1,11,0,22,0,33V213.6c0,6.8,2.5,10.5,9,12.7a32.473,32.473,0,0,0,9.2,1.7C174.9,228,192.8,227.9,210.8,227.9Zm146,.6v-.4c3,0,6,.1,9,0,10.3-.3,20.6-.4,30.9-1,4.7-.3,6.8-3.4,6.2-7.9a42.68,42.68,0,0,0-2.5-10.1q-12.6-31.95-25.6-63.8c-9.3-22.8-18.9-45.4-28.3-68.1-2.8-6.6-7.5-11.7-14.6-12.1-15.1-.8-30.2-.8-45.3-.4-6.2.2-9.3,4.9-8.7,11.1.3,3.6.8,7.3,1.4,10.9,4.5,26.5,8.8,53.1,13.5,79.6,2.8,16,5.8,32,9.2,47.9,1.8,8.5,5.9,12.1,14.4,12.6,13.4.9,26.9,1.2,40.4,1.7Z" transform="translate(0.1 -0.075)"/>
  <path class="shape" fill="#bdbdbd" d="M391.8,445.5c.1,100.9-82.6,183.9-183.5,184.1-102,.2-185-82.5-185.4-183.9-.4-102.4,84.2-185.3,184.8-185C309.6,260.9,391.7,343.2,391.8,445.5Zm-77.8-.7c0-58.8-47.3-105.9-106.3-106.4-57.2-.5-109,46.5-106.9,110.3,1.8,56.1,46.7,103,107.6,103.2C266.6,552,314,503.8,314,444.8Z" transform="translate(0.1 -0.075)"/>
  <path class="shape" fill="#bdbdbd" d="M724.1,642.9c-64.2,0-116.9-51.8-117.8-115.8-1-70.2,55.5-120.6,117.7-120.4,67.1.3,119.7,53.2,118.5,120.5C841.4,593.6,786.8,643.3,724.1,642.9Zm.2-49.8a68.371,68.371,0,0,0,68.8-68v-.3c.2-37.5-30.4-68.2-68.2-68.4A68.181,68.181,0,0,0,656,524v.5C655.8,562,686.4,593.7,724.3,593.1Z" transform="translate(0.1 -0.075)"/>
  <path class="shape" fill="#bdbdbd" d="M207.3,509.1c-35,0-63.9-28.8-64-63.8-.1-35.4,28.8-64.2,64.6-64.4,34.5-.2,63.8,29.2,63.8,64.1C271.7,480.3,242.8,509,207.3,509.1Z" transform="translate(0.1 -0.075)"/>
  <path class="shape" fill="#bdbdbd" d="M725.3,565.7c-23.7-.2-42.3-18.5-41.9-41.1.4-23.2,18.8-40.9,42.3-40.7,21.7.2,40,19,39.8,41.1C765.3,547.3,746.9,565.8,725.3,565.7Z" transform="translate(0.1 -0.075)"/>
</svg>
