<?xml version="1.0" encoding="utf-8"?>
<!-- Generator: Adobe Illustrator 24.1.1, SVG Export Plug-In . SVG Version: 6.00 Build 0)  -->
<svg version="1.1" id="Logo" xmlns="http://www.w3.org/2000/svg" xmlns:xlink="http://www.w3.org/1999/xlink" x="0px" y="0px"
	 viewBox="0 0 1000 1000" style="enable-background:new 0 0 1000 1000;" xml:space="preserve">
	<style type="text/css">
		.st0{fill:#e0e0e0 fill-rule:evenodd;clip-rule:evenodd;}
	</style>
	<g>
		<path class="st0" d="M754.7,562.5c73.8-46.4,154-28.2,192.6-6.5c1.7-41.4-1.6-68.7-8.9-92.1c-3.1-9.9-5.4-13.9-26.9-19
			c-52.4-12.6-213.6-53.2-237.5-59.4c-16.1-4.2-16.5-14.2-16.8-24.6c-1.5-49.3-1.1-111.9-1.1-122.6c0-6.9,6.3-15.2,20.1-15.2
			c42.4,0,35.2-47,5.6-47c-57.9,0-73.1,43.2-73.1,61.1c0,29.4,0.3,83.7,0.3,118.2c0,5.2-7.2,16-20.2,13.4
			c-27.6-5.4-33.4-6.7-59.4-12.3c-13.3-2.9-17.5-5.8-21.3-28c-5-29.1-14.7-80.5-21.3-121c7.4,0,9.2-0.1,16.8,0
			c24,0,32.5-21.2,32.5-32.2c0-19.9-12.3-32.7-34.8-32.7H118.5c-21.3,0-33.6,14.7-33.6,32.5c0,16.5,12.6,32.5,29.1,32.5
			c11.9,0,23.5,0,23.5,0s-27.6,144.1-33.6,175.9c-41.3,29.7-63.1,46.2-96.3,93c-10.7,15.1-9.8,31.8,1.1,41.4
			c12.7,11.2,35,4.2,44.8-11.2c47.7-75,177.2-140.7,305.8-68.3c118.5,66.7,134.9,208.6,109.8,274.4c68.9,0,140.1-0.1,207.2,0
			C676.3,677.1,682.6,607.9,754.7,562.5z M166.6,359.8c12.9-65.8,20.8-104.8,24.6-125.5c2.3-12.2,10.7-16.8,21.3-16.8h197.1
			c13.8,0,21.2,10.3,22.4,16.8c5.9,50.5,9.9,79.9,22.4,207.2C374.5,354.9,250.6,335.3,166.6,359.8z M233.8,463.9
			c-99.2,0-194.9,79.1-194.9,193.8c0,95.6,73.3,196,196,196c108.4,0,194.9-90.1,194.9-196C429.9,573.3,363.3,463.9,233.8,463.9z
				M237.8,774.7c-59.8,0-119.4-46.2-119.4-115.9c0-60.2,51.1-116.5,110.9-116.5c62.8,0,121,49.3,121,116.5
			C350.3,727,290.7,774.7,237.8,774.7z M861.1,574.8c-80.1,0-142.3,60.7-142.3,143.4c0,75.9,65,138.9,141.1,138.9
			c65.4,0,140-53.6,140-142.3C1000,642.9,944.1,574.8,861.1,574.8z M858.9,797.7c-44.1,0-81.8-35.5-81.8-82.9
			c0-49,42.4-81.8,84-81.8c46.3,0,80.6,39.1,80.6,82.9C941.8,753.3,912.6,797.7,858.9,797.7z"/>
	</g>
</svg>
